<?xml version="1.0" encoding="utf-8"?>
<!-- Generator: Adobe Illustrator 26.1.0, SVG Export Plug-In . SVG Version: 6.00 Build 0)  -->
<svg version="1.1" id="Ñëîé_1" xmlns="http://www.w3.org/2000/svg" xmlns:xlink="http://www.w3.org/1999/xlink" x="0px" y="0px"
	 viewBox="0 0 2000 2000" style="enable-background:new 0 0 2000 2000;" xml:space="preserve">
<style type="text/css">
	.shadow_x002D_white{fill:#FFFFFF;}
	.st0{opacity:0.4;fill:url(#SVGID_1_);}
	.st1{fill:url(#SVGID_00000057868176744279171010000000866104895814925752_);}
	.st2{fill:#787A7A;}
	.st3{opacity:0.4;}
	.st4{fill:#F3F3F3;}
	.st5{fill:#E7E7E7;}
	.st6{fill:#DBDBDB;}
	.st7{fill:#CECECE;}
	.st8{fill:#C2C2C2;}
	.st9{fill:#B6B6B6;}
	.st10{fill:#AAAAAA;}
	.st11{fill:#9E9E9E;}
	.st12{fill:#929292;}
	.st13{fill:#868686;}
	.st14{fill:#797979;}
	.st15{fill:#6D6D6D;}
	.st16{fill:#616161;}
	.st17{fill:#555555;}
	.st18{fill:#494949;}
	.st19{fill:#3D3D3D;}
	.st20{fill:#313131;}
	.st21{fill:#242424;}
	.st22{fill:#181818;}
	.st23{fill:#0C0C0C;}
	.st24{fill:url(#SVGID_00000094603592193195734830000015176847707066877318_);}
	.st25{fill:#F8F9FB;}
	.st26{fill:url(#SVGID_00000145777823122424965680000016037841549848947345_);}
	.st27{fill:url(#SVGID_00000112628353270344022090000005491639481602152065_);}
	.st28{fill:url(#SVGID_00000171698317406960897880000000524362226738318728_);}
	.st29{fill:url(#SVGID_00000097478913905521997060000015936444448839780492_);}
</style>
<g>
	<radialGradient id="SVGID_1_" cx="987.0563" cy="1046.0652" r="666.6666" gradientUnits="userSpaceOnUse">
		<stop  offset="0.5" style="stop-color:#000000"/>
		<stop  offset="1" style="stop-color:#FFFFFF"/>
	</radialGradient>
	<circle class="st0" cx="987.06" cy="1046.07" r="666.67"/>
	<g>
		<g>
			
				<linearGradient id="SVGID_00000183226941668072039020000012284752787133954464_" gradientUnits="userSpaceOnUse" x1="534.4882" y1="1465.5127" x2="1465.5126" y2="534.4882">
				<stop  offset="0.25" style="stop-color:#505354"/>
				<stop  offset="0.75" style="stop-color:#787A7A"/>
			</linearGradient>
			<path style="fill:url(#SVGID_00000183226941668072039020000012284752787133954464_);" d="M1000,1658.33
				c-88.88,0-175.09-17.41-256.25-51.73c-78.39-33.16-148.8-80.63-209.26-141.09c-60.46-60.46-107.93-130.87-141.09-209.26
				c-34.33-81.16-51.73-167.37-51.73-256.25c0-88.88,17.4-175.09,51.73-256.25c33.16-78.39,80.63-148.8,141.09-209.26
				c60.46-60.46,130.87-107.93,209.26-141.09c81.16-34.33,167.37-51.73,256.25-51.73c88.88,0,175.09,17.4,256.25,51.73
				c78.39,33.16,148.8,80.63,209.26,141.09c60.46,60.46,107.93,130.87,141.09,209.26c34.33,81.16,51.73,167.37,51.73,256.25
				c0,88.88-17.41,175.09-51.73,256.25c-33.16,78.39-80.63,148.8-141.09,209.26c-60.46,60.46-130.87,107.93-209.26,141.09
				C1175.09,1640.93,1088.88,1658.33,1000,1658.33z"/>
			<path class="st2" d="M1000,350c87.76,0,172.88,17.18,253,51.07c77.4,32.74,146.92,79.61,206.62,139.31S1566.19,669.6,1598.93,747
				c33.89,80.12,51.07,165.25,51.07,253s-17.18,172.88-51.07,253c-32.74,77.4-79.61,146.92-139.31,206.62
				c-59.7,59.7-129.22,106.57-206.62,139.31c-80.12,33.89-165.25,51.07-253,51.07s-172.88-17.18-253-51.07
				c-77.4-32.74-146.91-79.61-206.62-139.31c-59.7-59.7-106.57-129.22-139.31-206.62c-33.89-80.12-51.07-165.25-51.07-253
				s17.18-172.88,51.07-253c32.74-77.4,79.61-146.91,139.31-206.62S669.6,433.81,747,401.07C827.12,367.18,912.24,350,1000,350
				 M1000,333.33c-368.19,0-666.67,298.48-666.67,666.67s298.48,666.67,666.67,666.67s666.67-298.48,666.67-666.67
				S1368.19,333.33,1000,333.33L1000,333.33z"/>
		</g>
	</g>
</g>
<g class="st3">
	<path class="shadow_x002D_white" d="M1206.53,823.71h72.03c8.28,0,12.42-10,6.57-15.86l-146.34-146.34
		c-5.85-5.85-15.86-1.71-15.86,6.57v72.03C1122.93,786.28,1160.36,823.71,1206.53,823.71z M1036.22,1018.2h-40.7
		c-23.05,0-41.8,18.75-41.8,41.8v111.46c0,7.69,6.24,13.93,13.93,13.93c7.69,0,13.93-6.24,13.93-13.93v-55.73h37.49
		c7.7,0,13.93-6.24,13.93-13.93c0-7.69-6.24-13.93-13.93-13.93h-37.49V1060c0-7.68,6.25-13.93,13.93-13.93h40.7
		c7.69,0,13.93-6.24,13.93-13.93S1043.92,1018.2,1036.22,1018.2z M897.99,1138.55c0,10.46-8.51,18.98-18.98,18.98h-21.72v-111.46
		h21.72c10.47,0,18.98,8.51,18.98,18.98V1138.55z M879.01,1018.2h-35.65c-7.69,0-13.93,6.24-13.93,13.93v139.33
		c0,7.69,6.24,13.93,13.93,13.93h35.65c25.83,0,46.84-21.01,46.84-46.84v-73.5C925.86,1039.21,904.84,1018.2,879.01,1018.2z
		 M773.7,1073.93c0,7.68-6.25,13.93-13.93,13.93h-26.77v-41.8h26.77c7.68,0,13.93,6.25,13.93,13.93V1073.93z M759.76,1018.2h-40.7
		c-7.69,0-13.93,6.24-13.93,13.93v139.33c0,7.69,6.24,13.93,13.93,13.93c7.69,0,13.93-6.24,13.93-13.93v-55.73h26.77
		c23.05,0,41.8-18.75,41.8-41.8V1060C801.56,1036.95,782.81,1018.2,759.76,1018.2z M1095.06,1197.93
		c0,17.93-14.58,32.51-32.51,32.51H692.73c-17.93,0-32.51-14.58-32.51-32.51v-192.27c0-17.93,14.58-32.51,32.51-32.51h369.83
		c17.93,0,32.51,14.58,32.51,32.51V1197.93z M1291.69,851.57h-85.16c-30.13,0-58.44-11.88-79.57-33.41
		c-20.7-21.09-31.89-49.72-31.89-79.27v-83.94c0-5.13-4.16-9.29-9.29-9.29H831.85c-46.17,0-83.6,37.43-83.6,83.6v216.03h-55.53
		c-33.34,0-60.38,27.03-60.38,60.38v192.27c0,33.34,27.03,60.38,60.38,60.38h55.53v46.83c0,46.17,37.43,83.6,83.6,83.6h385.53
		c46.17,0,83.6-37.43,83.6-83.6V860.86C1300.98,855.73,1296.82,851.57,1291.69,851.57z"/>
	<path class="st4" d="M1208.11,822.12h72.03c8.28,0,12.42-10.01,6.57-15.86l-146.34-146.34c-5.85-5.85-15.86-1.71-15.86,6.57v72.03
		C1124.52,784.69,1161.94,822.12,1208.11,822.12z M1037.81,1016.61h-40.7c-23.05,0-41.8,18.75-41.8,41.8v111.46
		c0,7.69,6.24,13.93,13.93,13.93c7.69,0,13.93-6.24,13.93-13.93v-55.73h37.49c7.7,0,13.93-6.24,13.93-13.93
		c0-7.69-6.24-13.93-13.93-13.93h-37.49v-27.87c0-7.68,6.25-13.93,13.93-13.93h40.7c7.69,0,13.93-6.24,13.93-13.93
		C1051.74,1022.85,1045.5,1016.61,1037.81,1016.61z M899.58,1136.96c0,10.47-8.51,18.98-18.98,18.98h-21.72v-111.46h21.72
		c10.46,0,18.98,8.51,18.98,18.98V1136.96z M880.6,1016.61h-35.65c-7.69,0-13.93,6.24-13.93,13.93v139.33
		c0,7.69,6.24,13.93,13.93,13.93h35.65c25.83,0,46.84-21.01,46.84-46.84v-73.5C927.44,1037.63,906.43,1016.61,880.6,1016.61z
		 M775.28,1072.34c0,7.68-6.25,13.93-13.93,13.93h-26.77v-41.8h26.77c7.68,0,13.93,6.25,13.93,13.93V1072.34z M761.35,1016.61h-40.7
		c-7.69,0-13.93,6.24-13.93,13.93v139.33c0,7.69,6.24,13.93,13.93,13.93c7.69,0,13.93-6.24,13.93-13.93v-55.73h26.77
		c23.05,0,41.8-18.75,41.8-41.8v-13.93C803.15,1035.36,784.4,1016.61,761.35,1016.61z M1096.65,1196.34
		c0,17.93-14.58,32.51-32.51,32.51H694.32c-17.93,0-32.51-14.58-32.51-32.51v-192.27c0-17.93,14.58-32.51,32.51-32.51h369.83
		c17.93,0,32.51,14.58,32.51,32.51V1196.34z M1293.28,849.99h-85.16c-30.13,0-58.44-11.88-79.57-33.41
		c-20.7-21.09-31.89-49.72-31.89-79.27v-83.94c0-5.13-4.16-9.29-9.29-9.29H833.44c-46.17,0-83.6,37.43-83.6,83.6V943.7h-55.53
		c-33.34,0-60.38,27.03-60.38,60.38v192.27c0,33.34,27.03,60.38,60.38,60.38h55.53v46.83c0,46.17,37.43,83.6,83.6,83.6h385.53
		c46.17,0,83.6-37.43,83.6-83.6V859.28C1302.57,854.15,1298.41,849.99,1293.28,849.99z"/>
	<path class="st5" d="M1209.7,820.53h72.03c8.28,0,12.42-10.01,6.57-15.86l-146.34-146.34c-5.85-5.85-15.86-1.71-15.86,6.57v72.03
		C1126.1,783.11,1163.53,820.53,1209.7,820.53z M1039.4,1015.03h-40.7c-23.05,0-41.8,18.75-41.8,41.8v111.46
		c0,7.69,6.24,13.93,13.93,13.93c7.69,0,13.93-6.24,13.93-13.93v-55.73h37.49c7.7,0,13.93-6.24,13.93-13.93
		c0-7.69-6.24-13.93-13.93-13.93h-37.49v-27.87c0-7.68,6.25-13.93,13.93-13.93h40.7c7.69,0,13.93-6.24,13.93-13.93
		C1053.33,1021.26,1047.09,1015.03,1039.4,1015.03z M901.17,1135.37c0,10.47-8.51,18.98-18.98,18.98h-21.72v-111.46h21.72
		c10.47,0,18.98,8.51,18.98,18.98V1135.37z M882.19,1015.03h-35.65c-7.69,0-13.93,6.24-13.93,13.93v139.33
		c0,7.69,6.24,13.93,13.93,13.93h35.65c25.83,0,46.84-21.01,46.84-46.84v-73.5C929.03,1036.04,908.02,1015.03,882.19,1015.03z
		 M776.87,1070.76c0,7.68-6.25,13.93-13.93,13.93h-26.77v-41.8h26.77c7.68,0,13.93,6.25,13.93,13.93V1070.76z M762.94,1015.03h-40.7
		c-7.69,0-13.93,6.24-13.93,13.93v139.33c0,7.69,6.24,13.93,13.93,13.93c7.69,0,13.93-6.24,13.93-13.93v-55.73h26.77
		c23.05,0,41.8-18.75,41.8-41.8v-13.93C804.74,1033.78,785.98,1015.03,762.94,1015.03z M1098.24,1194.76
		c0,17.93-14.58,32.51-32.51,32.51H695.9c-17.93,0-32.51-14.58-32.51-32.51v-192.27c0-17.93,14.58-32.51,32.51-32.51h369.83
		c17.93,0,32.51,14.58,32.51,32.51V1194.76z M1294.87,848.4h-85.16c-30.13,0-58.44-11.88-79.57-33.41
		c-20.7-21.09-31.89-49.72-31.89-79.27v-83.94c0-5.13-4.16-9.29-9.29-9.29H835.03c-46.17,0-83.6,37.43-83.6,83.6v216.03H695.9
		c-33.34,0-60.38,27.03-60.38,60.38v192.27c0,33.34,27.03,60.38,60.38,60.38h55.53v46.83c0,46.17,37.43,83.6,83.6,83.6h385.53
		c46.17,0,83.6-37.43,83.6-83.6V857.69C1304.15,852.56,1299.99,848.4,1294.87,848.4z"/>
	<path class="st6" d="M1211.29,818.95h72.03c8.28,0,12.42-10,6.57-15.86l-146.34-146.34c-5.85-5.85-15.86-1.71-15.86,6.57v72.03
		C1127.69,781.52,1165.12,818.95,1211.29,818.95z M1040.98,1013.44h-40.7c-23.05,0-41.8,18.75-41.8,41.8v111.46
		c0,7.69,6.24,13.93,13.93,13.93c7.69,0,13.93-6.24,13.93-13.93v-55.73h37.49c7.7,0,13.93-6.24,13.93-13.93
		c0-7.69-6.24-13.93-13.93-13.93h-37.49v-27.87c0-7.68,6.25-13.93,13.93-13.93h40.7c7.69,0,13.93-6.24,13.93-13.93
		C1054.92,1019.68,1048.68,1013.44,1040.98,1013.44z M902.75,1133.79c0,10.46-8.51,18.98-18.98,18.98h-21.72V1041.3h21.72
		c10.46,0,18.98,8.51,18.98,18.98V1133.79z M883.78,1013.44h-35.65c-7.69,0-13.93,6.24-13.93,13.93v139.33
		c0,7.69,6.24,13.93,13.93,13.93h35.65c25.83,0,46.84-21.01,46.84-46.84v-73.5C930.62,1034.45,909.61,1013.44,883.78,1013.44z
		 M778.46,1069.17c0,7.68-6.25,13.93-13.93,13.93h-26.77v-41.8h26.77c7.68,0,13.93,6.25,13.93,13.93V1069.17z M764.52,1013.44h-40.7
		c-7.69,0-13.93,6.24-13.93,13.93v139.33c0,7.69,6.24,13.93,13.93,13.93c7.69,0,13.93-6.24,13.93-13.93v-55.73h26.77
		c23.05,0,41.8-18.75,41.8-41.8v-13.93C806.32,1032.19,787.57,1013.44,764.52,1013.44z M1099.83,1193.17
		c0,17.93-14.58,32.51-32.51,32.51H697.49c-17.93,0-32.51-14.58-32.51-32.51V1000.9c0-17.93,14.58-32.51,32.51-32.51h369.83
		c17.93,0,32.51,14.58,32.51,32.51V1193.17z M1296.45,846.81h-85.16c-30.13,0-58.44-11.88-79.57-33.41
		c-20.7-21.09-31.89-49.72-31.89-79.27v-83.94c0-5.13-4.16-9.29-9.29-9.29H836.62c-46.17,0-83.6,37.43-83.6,83.6v216.03h-55.53
		c-33.34,0-60.38,27.03-60.38,60.38v192.27c0,33.34,27.03,60.38,60.38,60.38h55.53v46.83c0,46.17,37.43,83.6,83.6,83.6h385.53
		c46.17,0,83.6-37.43,83.6-83.6V856.1C1305.74,850.97,1301.58,846.81,1296.45,846.81z"/>
	<path class="st7" d="M1212.87,817.36h72.03c8.28,0,12.42-10.01,6.57-15.86l-146.34-146.34c-5.85-5.85-15.86-1.71-15.86,6.57v72.03
		C1129.28,779.93,1166.71,817.36,1212.87,817.36z M1042.57,1011.85h-40.7c-23.05,0-41.8,18.75-41.8,41.8v111.46
		c0,7.69,6.24,13.93,13.93,13.93c7.69,0,13.93-6.24,13.93-13.93v-55.73h37.49c7.7,0,13.93-6.24,13.93-13.93s-6.24-13.93-13.93-13.93
		h-37.49v-27.87c0-7.68,6.25-13.93,13.93-13.93h40.7c7.69,0,13.93-6.24,13.93-13.93C1056.5,1018.09,1050.27,1011.85,1042.57,1011.85
		z M904.34,1132.2c0,10.46-8.51,18.98-18.98,18.98h-21.72v-111.46h21.72c10.47,0,18.98,8.51,18.98,18.98V1132.2z M885.36,1011.85
		h-35.65c-7.69,0-13.93,6.24-13.93,13.93v139.33c0,7.69,6.24,13.93,13.93,13.93h35.65c25.83,0,46.84-21.01,46.84-46.84v-73.5
		C932.21,1032.86,911.19,1011.85,885.36,1011.85z M780.04,1067.58c0,7.68-6.25,13.93-13.93,13.93h-26.77v-41.8h26.77
		c7.68,0,13.93,6.25,13.93,13.93V1067.58z M766.11,1011.85h-40.7c-7.69,0-13.93,6.24-13.93,13.93v139.33
		c0,7.69,6.24,13.93,13.93,13.93c7.69,0,13.93-6.24,13.93-13.93v-55.73h26.77c23.05,0,41.8-18.75,41.8-41.8v-13.93
		C807.91,1030.6,789.16,1011.85,766.11,1011.85z M1101.41,1191.58c0,17.93-14.58,32.51-32.51,32.51H699.08
		c-17.93,0-32.51-14.58-32.51-32.51V999.31c0-17.93,14.58-32.51,32.51-32.51h369.83c17.93,0,32.51,14.58,32.51,32.51V1191.58z
		 M1298.04,845.23h-85.16c-30.13,0-58.44-11.88-79.57-33.41c-20.7-21.09-31.89-49.72-31.89-79.27V648.6c0-5.13-4.16-9.29-9.29-9.29
		H838.2c-46.17,0-83.6,37.43-83.6,83.6v216.03h-55.53c-33.34,0-60.38,27.03-60.38,60.38v192.27c0,33.34,27.03,60.38,60.38,60.38
		h55.53v46.83c0,46.17,37.43,83.6,83.6,83.6h385.53c46.17,0,83.6-37.43,83.6-83.6V854.51
		C1307.33,849.38,1303.17,845.23,1298.04,845.23z"/>
	<path class="st8" d="M1214.46,815.77h72.03c8.28,0,12.42-10.01,6.57-15.86l-146.34-146.34c-5.85-5.85-15.86-1.71-15.86,6.57v72.03
		C1130.87,778.35,1168.29,815.77,1214.46,815.77z M1044.16,1010.26h-40.7c-23.05,0-41.8,18.75-41.8,41.8v111.46
		c0,7.69,6.24,13.93,13.93,13.93c7.69,0,13.93-6.24,13.93-13.93v-55.73h37.49c7.7,0,13.93-6.24,13.93-13.93
		c0-7.69-6.24-13.93-13.93-13.93h-37.49v-27.87c0-7.68,6.25-13.93,13.93-13.93h40.7c7.69,0,13.93-6.24,13.93-13.93
		C1058.09,1016.5,1051.85,1010.26,1044.16,1010.26z M905.93,1130.61c0,10.46-8.51,18.98-18.98,18.98h-21.72v-111.46h21.72
		c10.46,0,18.98,8.51,18.98,18.98V1130.61z M886.95,1010.26H851.3c-7.69,0-13.93,6.24-13.93,13.93v139.33
		c0,7.69,6.24,13.93,13.93,13.93h35.65c25.83,0,46.84-21.01,46.84-46.84v-73.5C933.79,1031.28,912.78,1010.26,886.95,1010.26z
		 M781.63,1065.99c0,7.68-6.25,13.93-13.93,13.93h-26.77v-41.8h26.77c7.68,0,13.93,6.25,13.93,13.93V1065.99z M767.7,1010.26H727
		c-7.69,0-13.93,6.24-13.93,13.93v139.33c0,7.69,6.24,13.93,13.93,13.93c7.69,0,13.93-6.24,13.93-13.93v-55.73h26.77
		c23.05,0,41.8-18.75,41.8-41.8v-13.93C809.5,1029.01,790.75,1010.26,767.7,1010.26z M1103,1189.99c0,17.93-14.58,32.51-32.51,32.51
		H700.67c-17.93,0-32.51-14.58-32.51-32.51V997.72c0-17.93,14.58-32.51,32.51-32.51h369.83c17.93,0,32.51,14.58,32.51,32.51V1189.99
		z M1299.63,843.64h-85.16c-30.13,0-58.44-11.88-79.57-33.41c-20.7-21.09-31.89-49.72-31.89-79.27v-83.94
		c0-5.13-4.16-9.29-9.29-9.29H839.79c-46.17,0-83.6,37.43-83.6,83.6v216.03h-55.53c-33.34,0-60.38,27.03-60.38,60.38v192.27
		c0,33.34,27.03,60.38,60.38,60.38h55.53v46.83c0,46.17,37.43,83.6,83.6,83.6h385.53c46.17,0,83.6-37.43,83.6-83.6V852.93
		C1308.92,847.8,1304.76,843.64,1299.63,843.64z"/>
	<path class="st9" d="M1216.05,814.19h72.03c8.28,0,12.42-10.01,6.57-15.86l-146.34-146.34c-5.85-5.85-15.86-1.71-15.86,6.57v72.03
		C1132.45,776.76,1169.88,814.19,1216.05,814.19z M1045.75,1008.68h-40.7c-23.05,0-41.8,18.75-41.8,41.8v111.46
		c0,7.69,6.24,13.93,13.93,13.93c7.69,0,13.93-6.24,13.93-13.93v-55.73h37.49c7.7,0,13.93-6.24,13.93-13.93
		c0-7.69-6.24-13.93-13.93-13.93h-37.49v-27.87c0-7.68,6.25-13.93,13.93-13.93h40.7c7.69,0,13.93-6.24,13.93-13.93
		C1059.68,1014.91,1053.44,1008.68,1045.75,1008.68z M907.52,1129.02c0,10.46-8.51,18.98-18.98,18.98h-21.72v-111.46h21.72
		c10.47,0,18.98,8.51,18.98,18.98V1129.02z M888.54,1008.68h-35.65c-7.69,0-13.93,6.24-13.93,13.93v139.33
		c0,7.69,6.24,13.93,13.93,13.93h35.65c25.83,0,46.84-21.01,46.84-46.84v-73.5C935.38,1029.69,914.37,1008.68,888.54,1008.68z
		 M783.22,1064.41c0,7.68-6.25,13.93-13.93,13.93h-26.77v-41.8h26.77c7.68,0,13.93,6.25,13.93,13.93V1064.41z M769.29,1008.68h-40.7
		c-7.69,0-13.93,6.24-13.93,13.93v139.33c0,7.69,6.24,13.93,13.93,13.93c7.69,0,13.93-6.24,13.93-13.93v-55.73h26.77
		c23.05,0,41.8-18.75,41.8-41.8v-13.93C811.08,1027.43,792.33,1008.68,769.29,1008.68z M1104.59,1188.41
		c0,17.93-14.58,32.51-32.51,32.51H702.25c-17.93,0-32.51-14.58-32.51-32.51V996.14c0-17.93,14.58-32.51,32.51-32.51h369.83
		c17.93,0,32.51,14.58,32.51,32.51V1188.41z M1301.21,842.05h-85.16c-30.13,0-58.44-11.88-79.57-33.41
		c-20.7-21.09-31.89-49.72-31.89-79.27v-83.94c0-5.13-4.16-9.29-9.29-9.29H841.38c-46.17,0-83.6,37.43-83.6,83.6v216.03h-55.53
		c-33.34,0-60.38,27.03-60.38,60.38v192.27c0,33.34,27.03,60.38,60.38,60.38h55.53v46.83c0,46.17,37.43,83.6,83.6,83.6h385.53
		c46.17,0,83.6-37.43,83.6-83.6V851.34C1310.5,846.21,1306.34,842.05,1301.21,842.05z"/>
	<path class="st10" d="M1217.64,812.6h72.03c8.28,0,12.42-10.01,6.57-15.86L1149.9,650.41c-5.85-5.85-15.86-1.71-15.86,6.57V729
		C1134.04,775.17,1171.47,812.6,1217.64,812.6z M1047.33,1007.09h-40.7c-23.05,0-41.8,18.75-41.8,41.8v111.46
		c0,7.69,6.24,13.93,13.93,13.93c7.69,0,13.93-6.24,13.93-13.93v-55.73h37.49c7.7,0,13.93-6.24,13.93-13.93
		c0-7.69-6.24-13.93-13.93-13.93H992.7v-27.87c0-7.68,6.25-13.93,13.93-13.93h40.7c7.69,0,13.93-6.24,13.93-13.93
		C1061.27,1013.33,1055.03,1007.09,1047.33,1007.09z M909.1,1127.44c0,10.47-8.51,18.98-18.98,18.98H868.4v-111.46h21.72
		c10.47,0,18.98,8.51,18.98,18.98V1127.44z M890.12,1007.09h-35.65c-7.69,0-13.93,6.24-13.93,13.93v139.33
		c0,7.69,6.24,13.93,13.93,13.93h35.65c25.83,0,46.84-21.01,46.84-46.84v-73.5C936.97,1028.1,915.95,1007.09,890.12,1007.09z
		 M784.81,1062.82c0,7.68-6.25,13.93-13.93,13.93h-26.77v-41.8h26.77c7.68,0,13.93,6.25,13.93,13.93V1062.82z M770.87,1007.09h-40.7
		c-7.69,0-13.93,6.24-13.93,13.93v139.33c0,7.69,6.24,13.93,13.93,13.93c7.69,0,13.93-6.24,13.93-13.93v-55.73h26.77
		c23.05,0,41.8-18.75,41.8-41.8v-13.93C812.67,1025.84,793.92,1007.09,770.87,1007.09z M1106.18,1186.82
		c0,17.93-14.58,32.51-32.51,32.51H703.84c-17.93,0-32.51-14.58-32.51-32.51V994.55c0-17.93,14.58-32.51,32.51-32.51h369.83
		c17.93,0,32.51,14.58,32.51,32.51V1186.82z M1302.8,840.46h-85.16c-30.13,0-58.44-11.88-79.57-33.41
		c-20.7-21.09-31.89-49.72-31.89-79.27v-83.94c0-5.13-4.16-9.29-9.29-9.29H842.97c-46.17,0-83.6,37.43-83.6,83.6v216.03h-55.53
		c-33.34,0-60.38,27.03-60.38,60.38v192.27c0,33.34,27.03,60.38,60.38,60.38h55.53v46.83c0,46.17,37.43,83.6,83.6,83.6h385.53
		c46.17,0,83.6-37.43,83.6-83.6V849.75C1312.09,844.62,1307.93,840.46,1302.8,840.46z"/>
	<path class="st11" d="M1219.22,811.01h72.03c8.28,0,12.42-10.01,6.57-15.86l-146.34-146.34c-5.85-5.85-15.86-1.71-15.86,6.57v72.03
		C1135.63,773.58,1173.06,811.01,1219.22,811.01z M1048.92,1005.5h-40.7c-23.05,0-41.8,18.75-41.8,41.8v111.46
		c0,7.69,6.24,13.93,13.93,13.93c7.69,0,13.93-6.24,13.93-13.93v-55.73h37.49c7.7,0,13.93-6.24,13.93-13.93
		c0-7.69-6.24-13.93-13.93-13.93h-37.49v-27.87c0-7.68,6.25-13.93,13.93-13.93h40.7c7.69,0,13.93-6.24,13.93-13.93
		C1062.85,1011.74,1056.62,1005.5,1048.92,1005.5z M910.69,1125.85c0,10.47-8.51,18.98-18.98,18.98h-21.72v-111.46h21.72
		c10.46,0,18.98,8.51,18.98,18.98V1125.85z M891.71,1005.5h-35.65c-7.69,0-13.93,6.24-13.93,13.93v139.33
		c0,7.69,6.24,13.93,13.93,13.93h35.65c25.83,0,46.84-21.01,46.84-46.84v-73.5C938.56,1026.52,917.54,1005.5,891.71,1005.5z
		 M786.39,1061.23c0,7.68-6.25,13.93-13.93,13.93h-26.77v-41.8h26.77c7.68,0,13.93,6.25,13.93,13.93V1061.23z M772.46,1005.5h-40.7
		c-7.69,0-13.93,6.24-13.93,13.93v139.33c0,7.69,6.24,13.93,13.93,13.93c7.69,0,13.93-6.24,13.93-13.93v-55.73h26.77
		c23.05,0,41.8-18.75,41.8-41.8v-13.93C814.26,1024.25,795.51,1005.5,772.46,1005.5z M1107.76,1185.23
		c0,17.93-14.58,32.51-32.51,32.51H705.43c-17.93,0-32.51-14.58-32.51-32.51V992.96c0-17.93,14.58-32.51,32.51-32.51h369.83
		c17.93,0,32.51,14.58,32.51,32.51V1185.23z M1304.39,838.88h-85.16c-30.13,0-58.44-11.88-79.57-33.41
		c-20.7-21.09-31.89-49.72-31.89-79.27v-83.94c0-5.13-4.16-9.29-9.29-9.29H844.55c-46.17,0-83.6,37.43-83.6,83.6v216.03h-55.53
		c-33.34,0-60.38,27.03-60.38,60.38v192.27c0,33.34,27.03,60.38,60.38,60.38h55.53v46.83c0,46.17,37.43,83.6,83.6,83.6h385.53
		c46.17,0,83.6-37.43,83.6-83.6V848.16C1313.68,843.03,1309.52,838.88,1304.39,838.88z"/>
	<path class="st12" d="M1220.81,809.42h72.03c8.28,0,12.42-10.01,6.57-15.86l-146.34-146.34c-5.85-5.85-15.86-1.71-15.86,6.57v72.03
		C1137.22,772,1174.64,809.42,1220.81,809.42z M1050.51,1003.91h-40.7c-23.05,0-41.8,18.75-41.8,41.8v111.46
		c0,7.69,6.24,13.93,13.93,13.93c7.69,0,13.93-6.24,13.93-13.93v-55.73h37.49c7.7,0,13.93-6.24,13.93-13.93
		c0-7.69-6.24-13.93-13.93-13.93h-37.49v-27.87c0-7.68,6.25-13.93,13.93-13.93h40.7c7.69,0,13.93-6.24,13.93-13.93
		C1064.44,1010.15,1058.2,1003.91,1050.51,1003.91z M912.28,1124.26c0,10.46-8.51,18.98-18.98,18.98h-21.72v-111.46h21.72
		c10.47,0,18.98,8.51,18.98,18.98V1124.26z M893.3,1003.91h-35.65c-7.69,0-13.93,6.24-13.93,13.93v139.33
		c0,7.69,6.24,13.93,13.93,13.93h35.65c25.83,0,46.84-21.01,46.84-46.84v-73.5C940.14,1024.93,919.13,1003.91,893.3,1003.91z
		 M787.98,1059.64c0,7.68-6.25,13.93-13.93,13.93h-26.77v-41.8h26.77c7.68,0,13.93,6.25,13.93,13.93V1059.64z M774.05,1003.91h-40.7
		c-7.69,0-13.93,6.24-13.93,13.93v139.33c0,7.69,6.24,13.93,13.93,13.93c7.69,0,13.93-6.24,13.93-13.93v-55.73h26.77
		c23.05,0,41.8-18.75,41.8-41.8v-13.93C815.85,1022.66,797.1,1003.91,774.05,1003.91z M1109.35,1183.65
		c0,17.93-14.58,32.51-32.51,32.51H707.02c-17.93,0-32.51-14.58-32.51-32.51V991.37c0-17.93,14.58-32.51,32.51-32.51h369.83
		c17.93,0,32.51,14.58,32.51,32.51V1183.65z M1305.98,837.29h-85.16c-30.13,0-58.44-11.88-79.57-33.41
		c-20.7-21.09-31.89-49.72-31.89-79.27v-83.94c0-5.13-4.16-9.29-9.29-9.29H846.14c-46.17,0-83.6,37.43-83.6,83.6V931h-55.53
		c-33.34,0-60.38,27.03-60.38,60.38v192.27c0,33.34,27.03,60.38,60.38,60.38h55.53v46.83c0,46.17,37.43,83.6,83.6,83.6h385.53
		c46.17,0,83.6-37.43,83.6-83.6V846.58C1315.26,841.45,1311.11,837.29,1305.98,837.29z"/>
	<path class="st13" d="M1222.4,807.84h72.03c8.28,0,12.42-10.01,6.57-15.86l-146.34-146.34c-5.85-5.85-15.86-1.71-15.86,6.57v72.03
		C1138.8,770.41,1176.23,807.84,1222.4,807.84z M1052.1,1002.33h-40.7c-23.05,0-41.8,18.75-41.8,41.8v111.46
		c0,7.69,6.24,13.93,13.93,13.93c7.69,0,13.93-6.24,13.93-13.93v-55.73h37.49c7.7,0,13.93-6.24,13.93-13.93s-6.24-13.93-13.93-13.93
		h-37.49v-27.87c0-7.68,6.25-13.93,13.93-13.93h40.7c7.69,0,13.93-6.24,13.93-13.93C1066.03,1008.56,1059.79,1002.33,1052.1,1002.33
		z M913.87,1122.67c0,10.46-8.51,18.98-18.98,18.98h-21.72v-111.46h21.72c10.47,0,18.98,8.51,18.98,18.98V1122.67z M894.89,1002.33
		h-35.65c-7.69,0-13.93,6.24-13.93,13.93v139.33c0,7.69,6.24,13.93,13.93,13.93h35.65c25.83,0,46.84-21.01,46.84-46.84v-73.5
		C941.73,1023.34,920.72,1002.33,894.89,1002.33z M789.57,1058.06c0,7.68-6.25,13.93-13.93,13.93h-26.77v-41.8h26.77
		c7.68,0,13.93,6.25,13.93,13.93V1058.06z M775.64,1002.33h-40.7c-7.69,0-13.93,6.24-13.93,13.93v139.33
		c0,7.69,6.24,13.93,13.93,13.93c7.69,0,13.93-6.24,13.93-13.93v-55.73h26.77c23.05,0,41.8-18.75,41.8-41.8v-13.93
		C817.43,1021.08,798.68,1002.33,775.64,1002.33z M1110.94,1182.06c0,17.93-14.58,32.51-32.51,32.51H708.6
		c-17.93,0-32.51-14.58-32.51-32.51V989.79c0-17.93,14.58-32.51,32.51-32.51h369.83c17.93,0,32.51,14.58,32.51,32.51V1182.06z
		 M1307.56,835.7h-85.16c-30.13,0-58.44-11.88-79.57-33.41c-20.7-21.09-31.89-49.72-31.89-79.27v-83.94c0-5.13-4.16-9.29-9.29-9.29
		H847.73c-46.17,0-83.6,37.43-83.6,83.6v216.03H708.6c-33.34,0-60.38,27.03-60.38,60.38v192.27c0,33.34,27.03,60.38,60.38,60.38
		h55.53v46.83c0,46.17,37.43,83.6,83.6,83.6h385.53c46.17,0,83.6-37.43,83.6-83.6V844.99
		C1316.85,839.86,1312.69,835.7,1307.56,835.7z"/>
	<path class="st14" d="M1223.99,806.25h72.03c8.28,0,12.42-10.01,6.57-15.86l-146.34-146.34c-5.85-5.85-15.86-1.71-15.86,6.57v72.03
		C1140.39,768.82,1177.82,806.25,1223.99,806.25z M1053.68,1000.74h-40.7c-23.05,0-41.8,18.75-41.8,41.8V1154
		c0,7.69,6.24,13.93,13.93,13.93c7.69,0,13.93-6.24,13.93-13.93v-55.73h37.49c7.7,0,13.93-6.24,13.93-13.93s-6.24-13.93-13.93-13.93
		h-37.49v-27.87c0-7.68,6.25-13.93,13.93-13.93h40.7c7.69,0,13.93-6.24,13.93-13.93
		C1067.62,1006.98,1061.38,1000.74,1053.68,1000.74z M915.45,1121.09c0,10.46-8.51,18.98-18.98,18.98h-21.72V1028.6h21.72
		c10.46,0,18.98,8.51,18.98,18.98V1121.09z M896.47,1000.74h-35.65c-7.69,0-13.93,6.24-13.93,13.93V1154
		c0,7.69,6.24,13.93,13.93,13.93h35.65c25.83,0,46.84-21.01,46.84-46.84v-73.5C943.32,1021.75,922.3,1000.74,896.47,1000.74z
		 M791.16,1056.47c0,7.68-6.25,13.93-13.93,13.93h-26.77v-41.8h26.77c7.68,0,13.93,6.25,13.93,13.93V1056.47z M777.22,1000.74h-40.7
		c-7.69,0-13.93,6.24-13.93,13.93V1154c0,7.69,6.24,13.93,13.93,13.93c7.69,0,13.93-6.24,13.93-13.93v-55.73h26.77
		c23.05,0,41.8-18.75,41.8-41.8v-13.93C819.02,1019.49,800.27,1000.74,777.22,1000.74z M1112.52,1180.47
		c0,17.93-14.58,32.51-32.51,32.51H710.19c-17.93,0-32.51-14.58-32.51-32.51V988.2c0-17.93,14.58-32.51,32.51-32.51h369.83
		c17.93,0,32.51,14.58,32.51,32.51V1180.47z M1309.15,834.11h-85.16c-30.13,0-58.44-11.88-79.57-33.41
		c-20.7-21.09-31.89-49.72-31.89-79.27v-83.94c0-5.13-4.16-9.29-9.29-9.29H849.32c-46.17,0-83.6,37.43-83.6,83.6v216.03h-55.53
		c-33.34,0-60.38,27.03-60.38,60.38v192.27c0,33.34,27.03,60.38,60.38,60.38h55.53v46.83c0,46.17,37.43,83.6,83.6,83.6h385.53
		c46.17,0,83.6-37.43,83.6-83.6V843.4C1318.44,838.27,1314.28,834.11,1309.15,834.11z"/>
	<path class="st15" d="M1225.57,804.66h72.03c8.28,0,12.42-10.01,6.57-15.86l-146.34-146.34c-5.85-5.85-15.86-1.71-15.86,6.57v72.03
		C1141.98,767.23,1179.4,804.66,1225.57,804.66z M1055.27,999.15h-40.7c-23.05,0-41.8,18.75-41.8,41.8v111.46
		c0,7.69,6.24,13.93,13.93,13.93c7.69,0,13.93-6.24,13.93-13.93v-55.73h37.49c7.7,0,13.93-6.24,13.93-13.93s-6.24-13.93-13.93-13.93
		h-37.49v-27.87c0-7.68,6.25-13.93,13.93-13.93h40.7c7.69,0,13.93-6.24,13.93-13.93C1069.2,1005.39,1062.96,999.15,1055.27,999.15z
		 M917.04,1119.5c0,10.46-8.51,18.98-18.98,18.98h-21.72v-111.46h21.72c10.46,0,18.98,8.51,18.98,18.98V1119.5z M898.06,999.15
		h-35.65c-7.69,0-13.93,6.24-13.93,13.93v139.33c0,7.69,6.24,13.93,13.93,13.93h35.65c25.83,0,46.84-21.01,46.84-46.84V1046
		C944.91,1020.17,923.89,999.15,898.06,999.15z M792.74,1054.88c0,7.68-6.25,13.93-13.93,13.93h-26.77v-41.8h26.77
		c7.68,0,13.93,6.25,13.93,13.93V1054.88z M778.81,999.15h-40.7c-7.69,0-13.93,6.24-13.93,13.93v139.33
		c0,7.69,6.24,13.93,13.93,13.93c7.69,0,13.93-6.24,13.93-13.93v-55.73h26.77c23.05,0,41.8-18.75,41.8-41.8v-13.93
		C820.61,1017.9,801.86,999.15,778.81,999.15z M1114.11,1178.88c0,17.93-14.58,32.51-32.51,32.51H711.78
		c-17.93,0-32.51-14.58-32.51-32.51V986.61c0-17.93,14.58-32.51,32.51-32.51h369.83c17.93,0,32.51,14.58,32.51,32.51V1178.88z
		 M1310.74,832.53h-85.16c-30.13,0-58.44-11.88-79.57-33.41c-20.7-21.09-31.89-49.72-31.89-79.27V635.9c0-5.13-4.16-9.29-9.29-9.29
		H850.9c-46.17,0-83.6,37.43-83.6,83.6v216.03h-55.53c-33.34,0-60.38,27.03-60.38,60.38v192.27c0,33.34,27.03,60.38,60.38,60.38
		h55.53v46.83c0,46.17,37.43,83.6,83.6,83.6h385.53c46.17,0,83.6-37.43,83.6-83.6V841.82
		C1320.03,836.69,1315.87,832.53,1310.74,832.53z"/>
	<path class="st16" d="M1227.16,803.07h72.03c8.28,0,12.42-10.01,6.57-15.86l-146.34-146.34c-5.85-5.85-15.86-1.71-15.86,6.57v72.03
		C1143.56,765.65,1180.99,803.07,1227.16,803.07z M1056.86,997.56h-40.7c-23.05,0-41.8,18.75-41.8,41.8v111.46
		c0,7.69,6.24,13.93,13.93,13.93c7.69,0,13.93-6.24,13.93-13.93v-55.73h37.49c7.7,0,13.93-6.24,13.93-13.93s-6.24-13.93-13.93-13.93
		h-37.49v-27.87c0-7.68,6.25-13.93,13.93-13.93h40.7c7.69,0,13.93-6.24,13.93-13.93C1070.79,1003.8,1064.55,997.56,1056.86,997.56z
		 M918.63,1117.91c0,10.47-8.51,18.98-18.98,18.98h-21.72v-111.46h21.72c10.47,0,18.98,8.51,18.98,18.98V1117.91z M899.65,997.56
		h-35.65c-7.69,0-13.93,6.24-13.93,13.93v139.33c0,7.69,6.24,13.93,13.93,13.93h35.65c25.83,0,46.84-21.01,46.84-46.84v-73.5
		C946.49,1018.58,925.48,997.56,899.65,997.56z M794.33,1053.3c0,7.68-6.25,13.93-13.93,13.93h-26.77v-41.8h26.77
		c7.68,0,13.93,6.25,13.93,13.93V1053.3z M780.4,997.56h-40.7c-7.69,0-13.93,6.24-13.93,13.93v139.33c0,7.69,6.24,13.93,13.93,13.93
		c7.69,0,13.93-6.24,13.93-13.93v-55.73h26.77c23.05,0,41.8-18.75,41.8-41.8v-13.93C822.2,1016.31,803.45,997.56,780.4,997.56z
		 M1115.7,1177.3c0,17.93-14.58,32.51-32.51,32.51H713.36c-17.93,0-32.51-14.58-32.51-32.51V985.03c0-17.93,14.58-32.51,32.51-32.51
		h369.83c17.93,0,32.51,14.58,32.51,32.51V1177.3z M1312.33,830.94h-85.16c-30.13,0-58.44-11.88-79.57-33.41
		c-20.7-21.09-31.89-49.72-31.89-79.27v-83.94c0-5.13-4.16-9.29-9.29-9.29H852.49c-46.17,0-83.6,37.43-83.6,83.6v216.03h-55.53
		c-33.34,0-60.38,27.03-60.38,60.38v192.27c0,33.34,27.03,60.38,60.38,60.38h55.53v46.83c0,46.17,37.43,83.6,83.6,83.6h385.53
		c46.17,0,83.6-37.43,83.6-83.6V840.23C1321.61,835.1,1317.46,830.94,1312.33,830.94z"/>
	<path class="st17" d="M1228.75,801.49h72.03c8.28,0,12.42-10.01,6.57-15.86l-146.34-146.34c-5.85-5.85-15.86-1.71-15.86,6.57v72.03
		C1145.15,764.06,1182.58,801.49,1228.75,801.49z M1058.44,995.98h-40.7c-23.05,0-41.8,18.75-41.8,41.8v111.46
		c0,7.69,6.24,13.93,13.93,13.93c7.69,0,13.93-6.24,13.93-13.93v-55.73h37.49c7.7,0,13.93-6.24,13.93-13.93s-6.24-13.93-13.93-13.93
		h-37.49v-27.87c0-7.68,6.25-13.93,13.93-13.93h40.7c7.69,0,13.93-6.24,13.93-13.93C1072.38,1002.22,1066.14,995.98,1058.44,995.98z
		 M920.21,1116.33c0,10.47-8.51,18.98-18.98,18.98h-21.72v-111.46h21.72c10.46,0,18.98,8.51,18.98,18.98V1116.33z M901.24,995.98
		h-35.65c-7.69,0-13.93,6.24-13.93,13.93v139.33c0,7.69,6.24,13.93,13.93,13.93h35.65c25.83,0,46.84-21.01,46.84-46.84v-73.5
		C948.08,1016.99,927.07,995.98,901.24,995.98z M795.92,1051.71c0,7.68-6.25,13.93-13.93,13.93h-26.77v-41.8h26.77
		c7.68,0,13.93,6.25,13.93,13.93V1051.71z M781.98,995.98h-40.7c-7.69,0-13.93,6.24-13.93,13.93v139.33
		c0,7.69,6.24,13.93,13.93,13.93c7.69,0,13.93-6.24,13.93-13.93v-55.73h26.77c23.05,0,41.8-18.75,41.8-41.8v-13.93
		C823.78,1014.73,805.03,995.98,781.98,995.98z M1117.29,1175.71c0,17.93-14.58,32.51-32.51,32.51H714.95
		c-17.93,0-32.51-14.58-32.51-32.51V983.44c0-17.93,14.58-32.51,32.51-32.51h369.83c17.93,0,32.51,14.58,32.51,32.51V1175.71z
		 M1313.91,829.35h-85.16c-30.13,0-58.44-11.88-79.57-33.41c-20.7-21.09-31.89-49.72-31.89-79.27v-83.94c0-5.13-4.16-9.29-9.29-9.29
		H854.08c-46.17,0-83.6,37.43-83.6,83.6v216.03h-55.53c-33.34,0-60.38,27.03-60.38,60.38v192.27c0,33.34,27.03,60.38,60.38,60.38
		h55.53v46.83c0,46.17,37.43,83.6,83.6,83.6h385.53c46.17,0,83.6-37.43,83.6-83.6V838.64
		C1323.2,833.51,1319.04,829.35,1313.91,829.35z"/>
	<path class="st18" d="M1230.34,799.9h72.03c8.28,0,12.42-10.01,6.57-15.86L1162.6,637.71c-5.85-5.85-15.86-1.71-15.86,6.57v72.03
		C1146.74,762.47,1184.17,799.9,1230.34,799.9z M1060.03,994.39h-40.7c-23.05,0-41.8,18.75-41.8,41.8v111.46
		c0,7.69,6.24,13.93,13.93,13.93c7.69,0,13.93-6.24,13.93-13.93v-55.73h37.49c7.7,0,13.93-6.24,13.93-13.93s-6.24-13.93-13.93-13.93
		h-37.49v-27.87c0-7.68,6.25-13.93,13.93-13.93h40.7c7.69,0,13.93-6.24,13.93-13.93C1073.96,1000.63,1067.73,994.39,1060.03,994.39z
		 M921.8,1114.74c0,10.46-8.51,18.98-18.98,18.98H881.1v-111.46h21.72c10.46,0,18.98,8.51,18.98,18.98V1114.74z M902.82,994.39
		h-35.65c-7.69,0-13.93,6.24-13.93,13.93v139.33c0,7.69,6.24,13.93,13.93,13.93h35.65c25.83,0,46.84-21.01,46.84-46.84v-73.5
		C949.67,1015.4,928.65,994.39,902.82,994.39z M797.5,1050.12c0,7.68-6.25,13.93-13.93,13.93H756.8v-41.8h26.77
		c7.68,0,13.93,6.25,13.93,13.93V1050.12z M783.57,994.39h-40.7c-7.69,0-13.93,6.24-13.93,13.93v139.33
		c0,7.69,6.24,13.93,13.93,13.93c7.69,0,13.93-6.24,13.93-13.93v-55.73h26.77c23.05,0,41.8-18.75,41.8-41.8v-13.93
		C825.37,1013.14,806.62,994.39,783.57,994.39z M1118.87,1174.12c0,17.93-14.58,32.51-32.51,32.51H716.54
		c-17.93,0-32.51-14.58-32.51-32.51V981.85c0-17.93,14.58-32.51,32.51-32.51h369.83c17.93,0,32.51,14.58,32.51,32.51V1174.12z
		 M1315.5,827.77h-85.16c-30.13,0-58.44-11.88-79.57-33.41c-20.7-21.09-31.89-49.72-31.89-79.27v-83.94c0-5.13-4.16-9.29-9.29-9.29
		H855.66c-46.17,0-83.6,37.43-83.6,83.6v216.03h-55.53c-33.34,0-60.38,27.03-60.38,60.38v192.27c0,33.34,27.03,60.38,60.38,60.38
		h55.53v46.83c0,46.17,37.43,83.6,83.6,83.6h385.53c46.17,0,83.6-37.43,83.6-83.6V837.05
		C1324.79,831.92,1320.63,827.77,1315.5,827.77z"/>
	<path class="st19" d="M1231.92,798.31h72.03c8.28,0,12.42-10.01,6.57-15.86l-146.34-146.34c-5.85-5.85-15.86-1.71-15.86,6.57v72.03
		C1148.33,760.89,1185.75,798.31,1231.92,798.31z M1061.62,992.8h-40.7c-23.05,0-41.8,18.75-41.8,41.8v111.46
		c0,7.69,6.24,13.93,13.93,13.93c7.69,0,13.93-6.24,13.93-13.93v-55.73h37.49c7.7,0,13.93-6.24,13.93-13.93s-6.24-13.93-13.93-13.93
		h-37.49v-27.87c0-7.68,6.25-13.93,13.93-13.93h40.7c7.69,0,13.93-6.24,13.93-13.93C1075.55,999.04,1069.31,992.8,1061.62,992.8z
		 M923.39,1113.15c0,10.46-8.51,18.98-18.98,18.98h-21.72v-111.46h21.72c10.47,0,18.98,8.51,18.98,18.98V1113.15z M904.41,992.8
		h-35.65c-7.69,0-13.93,6.24-13.93,13.93v139.33c0,7.69,6.24,13.93,13.93,13.93h35.65c25.83,0,46.84-21.01,46.84-46.84v-73.5
		C951.25,1013.82,930.24,992.8,904.41,992.8z M799.09,1048.53c0,7.68-6.25,13.93-13.93,13.93h-26.77v-41.8h26.77
		c7.68,0,13.93,6.25,13.93,13.93V1048.53z M785.16,992.8h-40.7c-7.69,0-13.93,6.24-13.93,13.93v139.33
		c0,7.69,6.24,13.93,13.93,13.93c7.69,0,13.93-6.24,13.93-13.93v-55.73h26.77c23.05,0,41.8-18.75,41.8-41.8v-13.93
		C826.96,1011.55,808.21,992.8,785.16,992.8z M1120.46,1172.53c0,17.93-14.58,32.51-32.51,32.51H718.13
		c-17.93,0-32.51-14.58-32.51-32.51V980.26c0-17.93,14.58-32.51,32.51-32.51h369.83c17.93,0,32.51,14.58,32.51,32.51V1172.53z
		 M1317.09,826.18h-85.16c-30.13,0-58.44-11.88-79.57-33.41c-20.7-21.09-31.89-49.72-31.89-79.27v-83.94c0-5.13-4.16-9.29-9.29-9.29
		H857.25c-46.17,0-83.6,37.43-83.6,83.6v216.03h-55.53c-33.34,0-60.38,27.03-60.38,60.38v192.27c0,33.34,27.03,60.38,60.38,60.38
		h55.53v46.83c0,46.17,37.43,83.6,83.6,83.6h385.53c46.17,0,83.6-37.43,83.6-83.6V835.47
		C1326.38,830.34,1322.22,826.18,1317.09,826.18z"/>
	<path class="st20" d="M1233.51,796.73h72.03c8.28,0,12.42-10.01,6.57-15.86l-146.34-146.34c-5.85-5.85-15.86-1.71-15.86,6.57v72.03
		C1149.91,759.3,1187.34,796.73,1233.51,796.73z M1063.21,991.22h-40.7c-23.05,0-41.8,18.75-41.8,41.8v111.46
		c0,7.69,6.24,13.93,13.93,13.93c7.69,0,13.93-6.24,13.93-13.93v-55.73h37.49c7.7,0,13.93-6.24,13.93-13.93s-6.24-13.93-13.93-13.93
		h-37.49v-27.87c0-7.68,6.25-13.93,13.93-13.93h40.7c7.69,0,13.93-6.24,13.93-13.93C1077.14,997.45,1070.9,991.22,1063.21,991.22z
		 M924.98,1111.56c0,10.46-8.51,18.98-18.98,18.98h-21.72v-111.46H906c10.46,0,18.98,8.51,18.98,18.98V1111.56z M906,991.22h-35.65
		c-7.69,0-13.93,6.24-13.93,13.93v139.33c0,7.69,6.24,13.93,13.93,13.93H906c25.83,0,46.84-21.01,46.84-46.84v-73.5
		C952.84,1012.23,931.83,991.22,906,991.22z M800.68,1046.95c0,7.68-6.25,13.93-13.93,13.93h-26.77v-41.8h26.77
		c7.68,0,13.93,6.25,13.93,13.93V1046.95z M786.75,991.22h-40.7c-7.69,0-13.93,6.24-13.93,13.93v139.33
		c0,7.69,6.24,13.93,13.93,13.93c7.69,0,13.93-6.24,13.93-13.93v-55.73h26.77c23.05,0,41.8-18.75,41.8-41.8v-13.93
		C828.54,1009.97,809.79,991.22,786.75,991.22z M1122.05,1170.95c0,17.93-14.58,32.51-32.51,32.51H719.71
		c-17.93,0-32.51-14.58-32.51-32.51V978.68c0-17.93,14.58-32.51,32.51-32.51h369.83c17.93,0,32.51,14.58,32.51,32.51V1170.95z
		 M1318.67,824.59h-85.16c-30.13,0-58.44-11.88-79.57-33.41c-20.7-21.09-31.89-49.72-31.89-79.27v-83.94c0-5.13-4.16-9.29-9.29-9.29
		H858.84c-46.17,0-83.6,37.43-83.6,83.6V918.3h-55.53c-33.34,0-60.38,27.03-60.38,60.38v192.27c0,33.34,27.03,60.38,60.38,60.38
		h55.53v46.83c0,46.17,37.43,83.6,83.6,83.6h385.53c46.17,0,83.6-37.43,83.6-83.6V833.88
		C1327.96,828.75,1323.8,824.59,1318.67,824.59z"/>
	<path class="st21" d="M1235.1,795.14h72.03c8.28,0,12.42-10.01,6.57-15.86l-146.34-146.34c-5.85-5.85-15.86-1.71-15.86,6.57v72.03
		C1151.5,757.71,1188.93,795.14,1235.1,795.14z M1064.79,989.63h-40.7c-23.05,0-41.8,18.75-41.8,41.8v111.46
		c0,7.69,6.24,13.93,13.93,13.93c7.69,0,13.93-6.24,13.93-13.93v-55.73h37.49c7.7,0,13.93-6.24,13.93-13.93s-6.24-13.93-13.93-13.93
		h-37.49v-27.87c0-7.68,6.25-13.93,13.93-13.93h40.7c7.69,0,13.93-6.24,13.93-13.93C1078.73,995.87,1072.49,989.63,1064.79,989.63z
		 M926.56,1109.98c0,10.46-8.51,18.98-18.98,18.98h-21.72v-111.46h21.72c10.46,0,18.98,8.51,18.98,18.98V1109.98z M907.58,989.63
		h-35.65c-7.69,0-13.93,6.24-13.93,13.93v139.33c0,7.69,6.24,13.93,13.93,13.93h35.65c25.83,0,46.84-21.01,46.84-46.84v-73.5
		C954.43,1010.64,933.41,989.63,907.58,989.63z M802.27,1045.36c0,7.68-6.25,13.93-13.93,13.93h-26.77v-41.8h26.77
		c7.68,0,13.93,6.25,13.93,13.93V1045.36z M788.33,989.63h-40.7c-7.69,0-13.93,6.24-13.93,13.93v139.33
		c0,7.69,6.24,13.93,13.93,13.93c7.69,0,13.93-6.24,13.93-13.93v-55.73h26.77c23.05,0,41.8-18.75,41.8-41.8v-13.93
		C830.13,1008.38,811.38,989.63,788.33,989.63z M1123.64,1169.36c0,17.93-14.58,32.51-32.51,32.51H721.3
		c-17.93,0-32.51-14.58-32.51-32.51V977.09c0-17.93,14.58-32.51,32.51-32.51h369.83c17.93,0,32.51,14.58,32.51,32.51V1169.36z
		 M1320.26,823h-85.16c-30.13,0-58.44-11.88-79.57-33.41c-20.7-21.09-31.89-49.72-31.89-79.27v-83.94c0-5.13-4.16-9.29-9.29-9.29
		H860.43c-46.17,0-83.6,37.43-83.6,83.6v216.03H721.3c-33.34,0-60.38,27.03-60.38,60.38v192.27c0,33.34,27.03,60.38,60.38,60.38
		h55.53v46.83c0,46.17,37.43,83.6,83.6,83.6h385.53c46.17,0,83.6-37.43,83.6-83.6V832.29C1329.55,827.16,1325.39,823,1320.26,823z"
		/>
	<path class="st22" d="M1236.68,793.55h72.03c8.28,0,12.42-10.01,6.57-15.86l-146.34-146.34c-5.85-5.85-15.86-1.71-15.86,6.57v72.03
		C1153.09,756.12,1190.52,793.55,1236.68,793.55z M1066.38,988.04h-40.7c-23.05,0-41.8,18.75-41.8,41.8v111.46
		c0,7.69,6.24,13.93,13.93,13.93c7.69,0,13.93-6.24,13.93-13.93v-55.73h37.49c7.7,0,13.93-6.24,13.93-13.93s-6.24-13.93-13.93-13.93
		h-37.49v-27.87c0-7.68,6.25-13.93,13.93-13.93h40.7c7.69,0,13.93-6.24,13.93-13.93C1080.31,994.28,1074.08,988.04,1066.38,988.04z
		 M928.15,1108.39c0,10.46-8.51,18.98-18.98,18.98h-21.72v-111.46h21.72c10.47,0,18.98,8.51,18.98,18.98V1108.39z M909.17,988.04
		h-35.65c-7.69,0-13.93,6.24-13.93,13.93v139.33c0,7.69,6.24,13.93,13.93,13.93h35.65c25.83,0,46.84-21.01,46.84-46.84v-73.5
		C956.02,1009.06,935,988.04,909.17,988.04z M803.85,1043.77c0,7.68-6.25,13.93-13.93,13.93h-26.77v-41.8h26.77
		c7.68,0,13.93,6.25,13.93,13.93V1043.77z M789.92,988.04h-40.7c-7.69,0-13.93,6.24-13.93,13.93v139.33
		c0,7.69,6.24,13.93,13.93,13.93c7.69,0,13.93-6.24,13.93-13.93v-55.73h26.77c23.05,0,41.8-18.75,41.8-41.8v-13.93
		C831.72,1006.79,812.97,988.04,789.92,988.04z M1125.22,1167.77c0,17.93-14.58,32.51-32.51,32.51H722.89
		c-17.93,0-32.51-14.58-32.51-32.51V975.5c0-17.93,14.58-32.51,32.51-32.51h369.83c17.93,0,32.51,14.58,32.51,32.51V1167.77z
		 M1321.85,821.42h-85.16c-30.13,0-58.44-11.88-79.57-33.41c-20.7-21.09-31.89-49.72-31.89-79.27v-83.94c0-5.13-4.16-9.29-9.29-9.29
		H862.01c-46.17,0-83.6,37.43-83.6,83.6v216.03h-55.53c-33.34,0-60.38,27.03-60.38,60.38v192.27c0,33.34,27.03,60.38,60.38,60.38
		h55.53v46.83c0,46.17,37.43,83.6,83.6,83.6h385.53c46.17,0,83.6-37.43,83.6-83.6V830.7
		C1331.14,825.57,1326.98,821.42,1321.85,821.42z"/>
	<path class="st23" d="M1238.27,791.96h72.03c8.28,0,12.42-10.01,6.57-15.86l-146.34-146.34c-5.85-5.85-15.86-1.71-15.86,6.57v72.03
		C1154.68,754.54,1192.1,791.96,1238.27,791.96z M1067.97,986.45h-40.7c-23.05,0-41.8,18.75-41.8,41.8v111.46
		c0,7.69,6.24,13.93,13.93,13.93c7.69,0,13.93-6.24,13.93-13.93v-55.73h37.49c7.7,0,13.93-6.24,13.93-13.93s-6.24-13.93-13.93-13.93
		h-37.49v-27.87c0-7.68,6.25-13.93,13.93-13.93h40.7c7.69,0,13.93-6.24,13.93-13.93C1081.9,992.69,1075.66,986.45,1067.97,986.45z
		 M929.74,1106.8c0,10.47-8.51,18.98-18.98,18.98h-21.72v-111.46h21.72c10.46,0,18.98,8.51,18.98,18.98V1106.8z M910.76,986.45
		H875.1c-7.69,0-13.93,6.24-13.93,13.93v139.33c0,7.69,6.24,13.93,13.93,13.93h35.65c25.83,0,46.84-21.01,46.84-46.84v-73.5
		C957.6,1007.47,936.59,986.45,910.76,986.45z M805.44,1042.18c0,7.68-6.25,13.93-13.93,13.93h-26.77v-41.8h26.77
		c7.68,0,13.93,6.25,13.93,13.93V1042.18z M791.51,986.45h-40.7c-7.69,0-13.93,6.24-13.93,13.93v139.33
		c0,7.69,6.24,13.93,13.93,13.93c7.69,0,13.93-6.24,13.93-13.93v-55.73h26.77c23.05,0,41.8-18.75,41.8-41.8v-13.93
		C833.31,1005.2,814.56,986.45,791.51,986.45z M1126.81,1166.19c0,17.93-14.58,32.51-32.51,32.51H724.48
		c-17.93,0-32.51-14.58-32.51-32.51V973.91c0-17.93,14.58-32.51,32.51-32.51h369.83c17.93,0,32.51,14.58,32.51,32.51V1166.19z
		 M1323.44,819.83h-85.16c-30.13,0-58.44-11.88-79.57-33.41c-20.7-21.09-31.89-49.72-31.89-79.27V623.2c0-5.13-4.16-9.29-9.29-9.29
		H863.6c-46.17,0-83.6,37.43-83.6,83.6v216.03h-55.53c-33.34,0-60.38,27.03-60.38,60.38v192.27c0,33.34,27.03,60.38,60.38,60.38H780
		v46.83c0,46.17,37.43,83.6,83.6,83.6h385.53c46.17,0,83.6-37.43,83.6-83.6V829.12C1332.72,823.99,1328.57,819.83,1323.44,819.83z"
		/>
	<path class="shadow_x002D_black" d="M1239.86,790.38h72.03c8.28,0,12.42-10.01,6.57-15.86l-146.34-146.34
		c-5.85-5.85-15.86-1.71-15.86,6.57v72.03C1156.26,752.95,1193.69,790.38,1239.86,790.38z M1069.56,984.87h-40.7
		c-23.05,0-41.8,18.75-41.8,41.8v111.46c0,7.69,6.24,13.93,13.93,13.93c7.69,0,13.93-6.24,13.93-13.93v-55.73h37.49
		c7.7,0,13.93-6.24,13.93-13.93s-6.24-13.93-13.93-13.93h-37.49v-27.87c0-7.68,6.25-13.93,13.93-13.93h40.7
		c7.69,0,13.93-6.24,13.93-13.93C1083.49,991.1,1077.25,984.87,1069.56,984.87z M931.33,1105.21c0,10.46-8.51,18.98-18.98,18.98
		h-21.72v-111.46h21.72c10.46,0,18.98,8.51,18.98,18.98V1105.21z M912.35,984.87h-35.65c-7.69,0-13.93,6.24-13.93,13.93v139.33
		c0,7.69,6.24,13.93,13.93,13.93h35.65c25.83,0,46.84-21.01,46.84-46.84v-73.5C959.19,1005.88,938.18,984.87,912.35,984.87z
		 M807.03,1040.6c0,7.68-6.25,13.93-13.93,13.93h-26.77v-41.8h26.77c7.68,0,13.93,6.25,13.93,13.93V1040.6z M793.1,984.87h-40.7
		c-7.69,0-13.93,6.24-13.93,13.93v139.33c0,7.69,6.24,13.93,13.93,13.93c7.69,0,13.93-6.24,13.93-13.93v-55.73h26.77
		c23.05,0,41.8-18.75,41.8-41.8v-13.93C834.89,1003.62,816.14,984.87,793.1,984.87z M1128.4,1164.6c0,17.93-14.58,32.51-32.51,32.51
		H726.06c-17.93,0-32.51-14.58-32.51-32.51V972.33c0-17.93,14.58-32.51,32.51-32.51h369.83c17.93,0,32.51,14.58,32.51,32.51V1164.6z
		 M1325.02,818.24h-85.16c-30.13,0-58.44-11.88-79.57-33.41c-20.7-21.09-31.89-49.72-31.89-79.27v-83.94c0-5.13-4.16-9.29-9.29-9.29
		H865.19c-46.17,0-83.6,37.43-83.6,83.6v216.03h-55.53c-33.34,0-60.38,27.03-60.38,60.38v192.27c0,33.34,27.03,60.38,60.38,60.38
		h55.53v46.83c0,46.17,37.43,83.6,83.6,83.6h385.53c46.17,0,83.6-37.43,83.6-83.6V827.53
		C1334.31,822.4,1330.15,818.24,1325.02,818.24z"/>
</g>
<g>
	<g>
		
			<linearGradient id="SVGID_00000154427948758342375460000012283207978689102506_" gradientUnits="userSpaceOnUse" x1="846.6853" y1="1123.1023" x2="955.9639" y2="1013.8237">
			<stop  offset="4.300000e-07" style="stop-color:#C7D1D9"/>
			<stop  offset="1" style="stop-color:#F8F9FB"/>
		</linearGradient>
		<path style="fill:url(#SVGID_00000154427948758342375460000012283207978689102506_);" d="M876.69,1148.73
			c-5.84,0-10.6-4.75-10.6-10.6V998.8c0-5.84,4.76-10.6,10.6-10.6h35.65c23.99,0,43.51,19.52,43.51,43.51v73.5
			c0,23.99-19.52,43.51-43.51,43.51H876.69z M890.62,1009.4c-1.84,0-3.33,1.49-3.33,3.33v111.46c0,1.84,1.49,3.33,3.33,3.33h21.72
			c12.3,0,22.31-10.01,22.31-22.31v-73.5c0-12.3-10.01-22.31-22.31-22.31H890.62z"/>
		<path class="st25" d="M912.35,991.53c22.15,0,40.18,18.02,40.18,40.18v73.5c0,22.15-18.02,40.18-40.18,40.18h-35.65
			c-4.01,0-7.27-3.26-7.27-7.27V998.8c0-4.01,3.26-7.27,7.27-7.27H912.35 M890.62,1130.86h21.72c14.14,0,25.65-11.5,25.65-25.65
			v-73.5c0-14.14-11.5-25.65-25.65-25.65h-21.72c-3.68,0-6.67,2.98-6.67,6.67v111.46C883.96,1127.88,886.94,1130.86,890.62,1130.86
			 M912.35,984.87h-35.65c-7.69,0-13.93,6.24-13.93,13.93v139.33c0,7.69,6.24,13.93,13.93,13.93h35.65
			c25.83,0,46.84-21.01,46.84-46.84v-73.5C959.19,1005.88,938.18,984.87,912.35,984.87L912.35,984.87z M890.62,1124.19v-111.46
			h21.72c10.46,0,18.98,8.51,18.98,18.98v73.5c0,10.46-8.51,18.98-18.98,18.98H890.62L890.62,1124.19z"/>
	</g>
	<g>
		
			<linearGradient id="SVGID_00000181076618971787837210000003851642762426193572_" gradientUnits="userSpaceOnUse" x1="962.7514" y1="1114.8716" x2="1081.681" y2="995.942">
			<stop  offset="4.300000e-07" style="stop-color:#C7D1D9"/>
			<stop  offset="1" style="stop-color:#F8F9FB"/>
		</linearGradient>
		<path style="fill:url(#SVGID_00000181076618971787837210000003851642762426193572_);" d="M1000.99,1148.73
			c-5.84,0-10.6-4.75-10.6-10.6v-111.46c0-21.21,17.26-38.47,38.46-38.47h40.7c5.84,0,10.6,4.75,10.6,10.6
			c0,5.84-4.75,10.6-10.6,10.6h-40.7c-9.52,0-17.27,7.75-17.27,17.27v27.86c0,1.84,1.49,3.33,3.33,3.33h37.49
			c5.84,0,10.6,4.75,10.6,10.6c0,5.84-4.76,10.6-10.6,10.6h-37.49c-1.84,0-3.33,1.49-3.33,3.33v55.73
			C1011.59,1143.97,1006.83,1148.73,1000.99,1148.73z"/>
		<path class="st25" d="M1069.56,991.53c4.01,0,7.27,3.26,7.27,7.27c0,4.01-3.26,7.27-7.27,7.27h-40.7c-11.36,0-20.6,9.24-20.6,20.6
			v27.87c0,3.68,2.98,6.67,6.67,6.67h37.49c4.01,0,7.27,3.26,7.27,7.27s-3.26,7.27-7.27,7.27h-37.49c-3.68,0-6.67,2.98-6.67,6.67
			v55.73c0,4.01-3.26,7.27-7.27,7.27c-4.01,0-7.27-3.26-7.27-7.27v-111.46c0-19.37,15.76-35.13,35.13-35.13H1069.56 M1069.56,984.87
			h-40.7c-23.05,0-41.8,18.75-41.8,41.8v111.46c0,7.69,6.24,13.93,13.93,13.93c7.69,0,13.93-6.24,13.93-13.93v-55.73h37.49
			c7.7,0,13.93-6.24,13.93-13.93c0-7.69-6.24-13.93-13.93-13.93h-37.49v-27.87c0-7.68,6.25-13.93,13.93-13.93h40.7
			c7.69,0,13.93-6.24,13.93-13.93C1083.49,991.1,1077.25,984.87,1069.56,984.87L1069.56,984.87z"/>
	</g>
	<g>
		
			<linearGradient id="SVGID_00000091717233838155302500000016120752372816997280_" gradientUnits="userSpaceOnUse" x1="1183.1327" y1="763.5092" x2="1242.9324" y2="703.7095">
			<stop  offset="4.300000e-07" style="stop-color:#C7D1D9"/>
			<stop  offset="1" style="stop-color:#F8F9FB"/>
		</linearGradient>
		<path style="fill:url(#SVGID_00000091717233838155302500000016120752372816997280_);" d="M1239.86,787.04
			c-44.26,0-80.26-36.01-80.26-80.26v-72.03c0-3.74,3.06-5.97,6.02-5.97c1.09,0,2.69,0.31,4.14,1.76l146.34,146.34
			c1.76,1.76,2.24,4.19,1.29,6.49c-0.95,2.3-3.01,3.68-5.5,3.68H1239.86z"/>
		<path class="st25" d="M1165.62,632.11c0.67,0,1.26,0.26,1.79,0.79l146.34,146.34c1.08,1.08,0.82,2.25,0.57,2.86
			c-0.25,0.6-0.9,1.62-2.42,1.62h-72.03c-42.42,0-76.93-34.51-76.93-76.93v-72.03C1162.93,632.83,1164.58,632.11,1165.62,632.11
			 M1165.62,625.44c-4.78,0-9.36,3.71-9.36,9.31v72.03c0,46.17,37.43,83.6,83.6,83.6h72.03c8.28,0,12.42-10,6.57-15.86
			l-146.34-146.34C1170.23,626.29,1167.9,625.44,1165.62,625.44L1165.62,625.44z"/>
	</g>
	<g>
		
			<linearGradient id="SVGID_00000060000191778575315750000016988766216850728627_" gradientUnits="userSpaceOnUse" x1="760.8708" y1="1280.9459" x2="1273.8647" y2="767.952">
			<stop  offset="4.300000e-07" style="stop-color:#C7D1D9"/>
			<stop  offset="1" style="stop-color:#F8F9FB"/>
		</linearGradient>
		<path style="fill:url(#SVGID_00000060000191778575315750000016988766216850728627_);" d="M865.19,1352.07
			c-44.26,0-80.26-36.01-80.26-80.26v-46.83c0-1.84-1.49-3.33-3.33-3.33h-55.53c-31.45,0-57.04-25.59-57.04-57.04V972.33
			c0-31.45,25.59-57.04,57.04-57.04h55.53c1.84,0,3.33-1.49,3.33-3.33V695.92c0-44.26,36.01-80.26,80.26-80.26h253.92
			c3.28,0,5.96,2.67,5.96,5.96v83.94c0,31.04,11.66,60.02,32.84,81.6c21.78,22.19,50.88,34.41,81.95,34.41h85.17
			c3.28,0,5.95,2.67,5.95,5.96v444.28c0,44.26-36.01,80.26-80.26,80.26H865.19z M726.06,936.48c-19.76,0-35.84,16.08-35.84,35.84
			v192.27c0,19.76,16.08,35.84,35.84,35.84h369.82c19.76,0,35.84-16.08,35.84-35.84V972.33c0-19.76-16.08-35.84-35.84-35.84H726.06z
			"/>
		<path class="st25" d="M1119.11,618.99c1.45,0,2.62,1.18,2.62,2.62v83.94c0,31.92,12,61.73,33.8,83.94
			c22.41,22.83,52.36,35.41,84.33,35.41h85.16c1.45,0,2.62,1.18,2.62,2.62v444.28c0,42.42-34.51,76.93-76.93,76.93H865.19
			c-42.42,0-76.93-34.51-76.93-76.93v-46.83c0-3.68-2.98-6.67-6.67-6.67h-55.53c-29.61,0-53.71-24.09-53.71-53.71V972.33
			c0-29.61,24.09-53.71,53.71-53.71h55.53c3.68,0,6.67-2.98,6.67-6.67V695.92c0-42.42,34.51-76.93,76.93-76.93H1119.11
			 M726.06,1203.77h369.83c21.6,0,39.18-17.57,39.18-39.18V972.33c0-21.6-17.57-39.18-39.18-39.18H726.06
			c-21.6,0-39.18,17.57-39.18,39.18v192.27C686.89,1186.2,704.46,1203.77,726.06,1203.77 M1119.11,612.33H865.19
			c-46.17,0-83.6,37.43-83.6,83.6v216.03h-55.53c-33.34,0-60.38,27.03-60.38,60.37v192.27c0,33.34,27.03,60.38,60.38,60.38h55.53
			v46.83c0,46.17,37.43,83.6,83.6,83.6h385.53c46.17,0,83.6-37.43,83.6-83.6V827.53c0-5.13-4.16-9.29-9.29-9.29h-85.16
			c-30.13,0-58.44-11.88-79.57-33.41c-20.7-21.09-31.89-49.72-31.89-79.27v-83.94C1128.4,616.49,1124.24,612.33,1119.11,612.33
			L1119.11,612.33z M726.06,1197.11c-17.93,0-32.51-14.58-32.51-32.51V972.33c0-17.93,14.58-32.51,32.51-32.51h369.83
			c17.93,0,32.51,14.58,32.51,32.51v192.27c0,17.93-14.58,32.51-32.51,32.51H726.06L726.06,1197.11z"/>
	</g>
	<g>
		
			<linearGradient id="SVGID_00000065037628584207736040000000377816870701203344_" gradientUnits="userSpaceOnUse" x1="710.0716" y1="1110.7863" x2="820.8304" y2="1000.0273">
			<stop  offset="4.300000e-07" style="stop-color:#C7D1D9"/>
			<stop  offset="1" style="stop-color:#F8F9FB"/>
		</linearGradient>
		<path style="fill:url(#SVGID_00000065037628584207736040000000377816870701203344_);" d="M752.4,1148.73
			c-5.84,0-10.6-4.75-10.6-10.6V998.8c0-5.84,4.76-10.6,10.6-10.6h40.7c21.21,0,38.47,17.26,38.47,38.47v13.93
			c0,21.21-17.26,38.47-38.47,38.47h-26.77c-1.84,0-3.33,1.49-3.33,3.33v55.73C762.99,1143.97,758.24,1148.73,752.4,1148.73z
			 M766.33,1009.4c-1.84,0-3.33,1.49-3.33,3.33v41.8c0,1.84,1.49,3.33,3.33,3.33h26.77c9.52,0,17.27-7.75,17.27-17.27v-13.93
			c0-9.52-7.75-17.27-17.27-17.27H766.33z"/>
		<path class="st25" d="M793.1,991.53c19.37,0,35.13,15.76,35.13,35.13v13.93c0,19.37-15.76,35.13-35.13,35.13h-26.77
			c-3.68,0-6.67,2.98-6.67,6.67v55.73c0,4.01-3.26,7.27-7.27,7.27c-4.01,0-7.27-3.26-7.27-7.27V998.8c0-4.01,3.26-7.27,7.27-7.27
			H793.1 M766.33,1061.2h26.77c11.36,0,20.6-9.24,20.6-20.6v-13.93c0-11.36-9.24-20.6-20.6-20.6h-26.77c-3.68,0-6.67,2.98-6.67,6.67
			v41.8C759.66,1058.21,762.65,1061.2,766.33,1061.2 M793.1,984.87h-40.7c-7.69,0-13.93,6.24-13.93,13.93v139.33
			c0,7.69,6.24,13.93,13.93,13.93c7.69,0,13.93-6.24,13.93-13.93v-55.73h26.77c23.05,0,41.8-18.75,41.8-41.8v-13.93
			C834.89,1003.62,816.14,984.87,793.1,984.87L793.1,984.87z M766.33,1054.53v-41.8h26.77c7.68,0,13.93,6.25,13.93,13.93v13.93
			c0,7.68-6.25,13.93-13.93,13.93H766.33L766.33,1054.53z"/>
	</g>
</g>
</svg>
